<svg width="40" height="41" viewBox="0 0 40 41" fill="none" xmlns="http://www.w3.org/2000/svg">
<rect y="0.146973" width="40" height="40" rx="12" fill="#748FB5"/>
<g clip-path="url(#clip0_15_12463)">
<path d="M31.781 22.522L27.781 17.522C27.6873 17.4049 27.5684 17.3104 27.4332 17.2455C27.298 17.1806 27.15 17.1469 27 17.147V22.147C27 22.9426 26.6839 23.7057 26.1213 24.2683C25.5587 24.8309 24.7956 25.147 24 25.147H15V28.147C15 28.4122 15.1054 28.6665 15.2929 28.8541C15.4804 29.0416 15.7348 29.147 16 29.147H27C27.15 29.147 27.298 29.1134 27.4332 29.0484C27.5684 28.9835 27.6873 28.889 27.781 28.772L31.781 23.772C31.923 23.5946 32.0004 23.3742 32.0004 23.147C32.0004 22.9198 31.923 22.6993 31.781 22.522Z" fill="white"/>
<path d="M24.0004 23.147H13.0004C12.8504 23.147 12.7023 23.1134 12.5672 23.0484C12.432 22.9835 12.3131 22.889 12.2194 22.772L8.21938 17.772C8.07737 17.5946 8 17.3742 8 17.147C8 16.9198 8.07737 16.6993 8.21938 16.522L12.2194 11.522C12.3131 11.4049 12.432 11.3104 12.5672 11.2455C12.7023 11.1806 12.8504 11.1469 13.0004 11.147H24.0004C24.2656 11.147 24.5199 11.2523 24.7075 11.4399C24.895 11.6274 25.0004 11.8818 25.0004 12.147V22.147C25.0004 22.4122 24.895 22.6665 24.7075 22.8541C24.5199 23.0416 24.2656 23.147 24.0004 23.147Z" fill="white"/>
</g>
<defs>
<clipPath id="clip0_15_12463">
<rect width="24" height="24" fill="white" transform="translate(8 8.14697)"/>
</clipPath>
</defs>
</svg>
