<svg width="12" height="15" viewBox="0 0 12 15" fill="none" xmlns="http://www.w3.org/2000/svg">
<path d="M4.71733 6.33337C5.11733 6.33337 5.44133 6.63337 5.434 7.00004C5.434 7.36671 5.118 7.66671 4.71733 7.66671C4.324 7.66671 4 7.36671 4 7.00004C4 6.63337 4.31667 6.33337 4.71733 6.33337ZM7.28267 6.33337C7.68333 6.33337 8 6.63337 8 7.00004C8 7.36671 7.68333 7.66671 7.28267 7.66671C6.88933 7.66671 6.566 7.36671 6.566 7.00004C6.566 6.63337 6.882 6.33337 7.28267 6.33337ZM10.594 0.333374C11.3693 0.333374 12 0.977374 12 1.77537V14.3334L10.526 13.0034L9.696 12.2194L8.818 11.386L9.182 12.6814H1.406C0.630667 12.6814 0 12.0374 0 11.2394V1.77537C0 0.977374 0.630667 0.333374 1.406 0.333374H10.5933H10.594ZM7.94733 9.47537C9.46267 9.42671 10.046 8.41137 10.046 8.41137C10.046 6.15737 9.058 4.33004 9.058 4.33004C8.07133 3.57471 7.13133 3.59537 7.13133 3.59537L7.03533 3.70737C8.20133 4.07137 8.74267 4.59671 8.74267 4.59671C8.10605 4.23803 7.40443 4.0096 6.67867 3.92471C6.21829 3.87271 5.75329 3.87719 5.294 3.93804C5.25267 3.93804 5.218 3.94537 5.17733 3.95204C4.93733 3.97337 4.354 4.06404 3.62067 4.39337C3.36733 4.51204 3.216 4.59671 3.216 4.59671C3.216 4.59671 3.78533 4.04337 5.01933 3.67937L4.95067 3.59537C4.95067 3.59537 4.01133 3.57471 3.024 4.33071C3.024 4.33071 2.03667 6.15737 2.03667 8.41137C2.03667 8.41137 2.61267 9.42604 4.128 9.47537C4.128 9.47537 4.38133 9.16071 4.588 8.89471C3.71667 8.62804 3.388 8.06804 3.388 8.06804C3.388 8.06804 3.456 8.11737 3.57933 8.18737C3.586 8.19404 3.59267 8.20137 3.60667 8.20804C3.62733 8.22271 3.648 8.22937 3.66867 8.24337C3.84 8.34137 4.01133 8.41804 4.16867 8.48137C4.45 8.59337 4.786 8.70537 5.17733 8.78271C5.76355 8.89761 6.36627 8.89988 6.95333 8.78937C7.29528 8.72834 7.62889 8.62743 7.94733 8.48871C8.18733 8.39737 8.45467 8.26404 8.736 8.07537C8.736 8.07537 8.39333 8.64937 7.49467 8.90871C7.70067 9.17471 7.948 9.47537 7.948 9.47537H7.94733Z" fill="#F9F9F9"/>
</svg>
