<svg width="8" height="16" viewBox="0 0 8 16" fill="none" xmlns="http://www.w3.org/2000/svg">
<path d="M7.67725 0.731054L5.84118 0.728027C3.7784 0.728027 2.44535 2.13295 2.44535 4.30743V5.95778H0.599253C0.439728 5.95778 0.310547 6.09063 0.310547 6.2545V8.64567C0.310547 8.80954 0.439875 8.94223 0.599253 8.94223H2.44535V14.9759C2.44535 15.1398 2.57453 15.2725 2.73405 15.2725H5.14268C5.30221 15.2725 5.43139 15.1396 5.43139 14.9759V8.94223H7.58991C7.74943 8.94223 7.87861 8.80954 7.87861 8.64567L7.8795 6.2545C7.8795 6.17582 7.849 6.10047 7.79495 6.04479C7.74089 5.9891 7.66724 5.95778 7.59064 5.95778H5.43139V4.55876C5.43139 3.88634 5.58738 3.54498 6.44009 3.54498L7.67696 3.54453C7.83634 3.54453 7.96552 3.41167 7.96552 3.24796V1.02762C7.96552 0.864056 7.83648 0.731356 7.67725 0.731054Z" fill="white"/>
</svg>
