<svg width="14" height="14" viewBox="0 0 14 14" fill="none" xmlns="http://www.w3.org/2000/svg">
<path d="M6.99967 13.6667C3.31767 13.6667 0.333008 10.682 0.333008 7.00004C0.333008 3.31804 3.31767 0.333374 6.99967 0.333374C10.6817 0.333374 13.6663 3.31804 13.6663 7.00004C13.6663 10.682 10.6817 13.6667 6.99967 13.6667ZM11.4463 7.00004C11.4395 6.81239 11.3785 6.63072 11.2707 6.47695C11.1629 6.32318 11.013 6.20387 10.8389 6.1334C10.6649 6.06294 10.4741 6.04432 10.2897 6.0798C10.1053 6.11528 9.93515 6.20335 9.79967 6.33337C9.04129 5.81785 8.14981 5.53304 7.23301 5.51337L7.66634 3.43337L9.09301 3.73337C9.10997 3.89103 9.18257 4.03748 9.29777 4.14643C9.41297 4.25538 9.56324 4.31971 9.7216 4.32785C9.87995 4.336 10.036 4.28744 10.1618 4.19088C10.2876 4.09433 10.3748 3.95611 10.4079 3.80102C10.4409 3.64594 10.4176 3.48416 10.3421 3.34471C10.2667 3.20527 10.1439 3.09729 9.99602 3.04016C9.8481 2.98304 9.68467 2.98051 9.53505 3.03303C9.38544 3.08554 9.25944 3.18967 9.17968 3.32671L7.54634 3.00004C7.51963 2.99418 7.49202 2.99368 7.46511 2.99857C7.4382 3.00346 7.41253 3.01364 7.38959 3.02852C7.36665 3.0434 7.34688 3.06269 7.33145 3.08527C7.31602 3.10784 7.30521 3.13326 7.29967 3.16004L6.80634 5.47337C5.87826 5.48737 4.97452 5.77239 4.20634 6.29337C4.10357 6.19668 3.981 6.12348 3.84713 6.07886C3.71325 6.03424 3.57128 6.01926 3.43104 6.03497C3.29081 6.05067 3.15566 6.09668 3.03497 6.1698C2.91429 6.24293 2.81094 6.34142 2.7321 6.45846C2.65326 6.57549 2.60082 6.70827 2.57839 6.84759C2.55597 6.98691 2.56411 7.12944 2.60224 7.2653C2.64038 7.40116 2.7076 7.52711 2.79925 7.63441C2.8909 7.74171 3.00478 7.8278 3.13301 7.88671C3.1255 7.98434 3.1255 8.08241 3.13301 8.18004C3.13301 9.67337 4.87301 10.8867 7.01967 10.8867C9.16634 10.8867 10.9063 9.67337 10.9063 8.18004C10.9138 8.08241 10.9138 7.98434 10.9063 7.88671C11.0709 7.80494 11.2089 7.67828 11.3044 7.52138C11.4 7.36448 11.4492 7.18373 11.4463 7.00004ZM4.77967 7.66671C4.77967 7.4899 4.84991 7.32033 4.97494 7.1953C5.09996 7.07028 5.26953 7.00004 5.44634 7.00004C5.62315 7.00004 5.79272 7.07028 5.91775 7.1953C6.04277 7.32033 6.11301 7.4899 6.11301 7.66671C6.11301 7.84352 6.04277 8.01309 5.91775 8.13811C5.79272 8.26314 5.62315 8.33337 5.44634 8.33337C5.26953 8.33337 5.09996 8.26314 4.97494 8.13811C4.84991 8.01309 4.77967 7.84352 4.77967 7.66671ZM8.65301 9.50004C8.18002 9.85648 7.59808 10.0379 7.00634 10.0134C6.4146 10.0379 5.83266 9.85648 5.35967 9.50004C5.33133 9.4655 5.31684 9.42165 5.31903 9.37702C5.32122 9.33239 5.33994 9.29016 5.37153 9.25857C5.40313 9.22697 5.44535 9.20825 5.48998 9.20606C5.53462 9.20387 5.57847 9.21836 5.61301 9.24671C6.01383 9.54071 6.50309 9.6889 6.99967 9.66671C7.49687 9.69375 7.98841 9.55028 8.39301 9.26004C8.41006 9.24094 8.43085 9.22556 8.4541 9.21484C8.47735 9.20412 8.50256 9.1983 8.52815 9.19774C8.55375 9.19718 8.57919 9.20189 8.60288 9.21157C8.62658 9.22126 8.64803 9.23572 8.6659 9.25405C8.68378 9.27238 8.69769 9.29419 8.70677 9.31813C8.71586 9.34206 8.71992 9.36761 8.71871 9.39318C8.7175 9.41875 8.71104 9.4438 8.69974 9.46677C8.68844 9.48975 8.67253 9.51015 8.65301 9.52671V9.50004ZM8.53301 8.36004C8.40115 8.36004 8.27226 8.32094 8.16263 8.24769C8.053 8.17443 7.96755 8.07031 7.91709 7.9485C7.86663 7.82668 7.85343 7.69263 7.87915 7.56331C7.90487 7.43399 7.96837 7.3152 8.0616 7.22197C8.15484 7.12873 8.27363 7.06524 8.40295 7.03952C8.53227 7.01379 8.66631 7.027 8.78813 7.07745C8.90995 7.12791 9.01407 7.21336 9.08732 7.32299C9.16058 7.43263 9.19967 7.56152 9.19967 7.69337C9.2033 7.7837 9.18851 7.87383 9.15621 7.95826C9.12391 8.0427 9.07478 8.11968 9.0118 8.18454C8.94881 8.24939 8.8733 8.30075 8.78984 8.33551C8.70639 8.37027 8.61674 8.38768 8.52634 8.38671L8.53301 8.36004Z" fill="#F9F9F9"/>
</svg>
