<svg width="14" height="14" viewBox="0 0 14 14" fill="none" xmlns="http://www.w3.org/2000/svg">
<path d="M6.99967 13.6667C3.31767 13.6667 0.333008 10.682 0.333008 7.00004C0.333008 3.31804 3.31767 0.333374 6.99967 0.333374C10.6817 0.333374 13.6663 3.31804 13.6663 7.00004C13.6663 10.682 10.6817 13.6667 6.99967 13.6667ZM4.92634 7.78004L4.93501 7.77537L5.51501 9.68871C5.58967 9.89604 5.69234 9.93337 5.81701 9.91604C5.94234 9.89937 6.00834 9.83204 6.09034 9.75337L6.88234 8.98804L8.58234 10.2467C8.89301 10.418 9.11634 10.3294 9.19368 9.95871L10.2983 4.74404C10.4203 4.25871 10.207 4.06404 9.83034 4.21871L3.34167 6.72537C2.89901 6.90271 2.90167 7.15071 3.26167 7.26071L4.92634 7.78071V7.78004Z" fill="#F9F9F9"/>
</svg>
