<svg width="14" height="12" viewBox="0 0 14 12" fill="none" xmlns="http://www.w3.org/2000/svg">
<path d="M13.3617 2.33196C13.6663 3.51996 13.6663 5.99996 13.6663 5.99996C13.6663 5.99996 13.6663 8.47996 13.3617 9.66796C13.1923 10.3246 12.697 10.8413 12.0697 11.016C10.9303 11.3333 6.99967 11.3333 6.99967 11.3333C6.99967 11.3333 3.07101 11.3333 1.92967 11.016C1.29967 10.8386 0.805008 10.3226 0.637675 9.66796C0.333008 8.47996 0.333008 5.99996 0.333008 5.99996C0.333008 5.99996 0.333008 3.51996 0.637675 2.33196C0.807008 1.67529 1.30234 1.15863 1.92967 0.983959C3.07101 0.666626 6.99967 0.666626 6.99967 0.666626C6.99967 0.666626 10.9303 0.666626 12.0697 0.983959C12.6997 1.16129 13.1943 1.67729 13.3617 2.33196ZM5.66634 8.33329L9.66634 5.99996L5.66634 3.66663V8.33329Z" fill="#F9F9F9"/>
</svg>
